<svg width="32" height="32" viewBox="0 0 32 32" fill="none" xmlns="http://www.w3.org/2000/svg">
<circle cx="16" cy="16" r="16" fill="#ED2969"/>
<path d="M16.9297 6.95766C17.5896 6.95512 18.2495 6.96176 18.9092 6.97755L19.0846 6.98388C19.2872 6.99112 19.487 7.00016 19.7285 7.01101C20.6907 7.05623 21.3472 7.20815 21.9232 7.43152C22.5201 7.66121 23.0229 7.9723 23.5256 8.4751C23.9854 8.9269 24.3412 9.47342 24.5683 10.0766C24.7917 10.6527 24.9436 11.3101 24.9888 12.2723C24.9997 12.5129 25.0087 12.7136 25.0159 12.9162L25.0214 13.0916C25.0374 13.7511 25.0444 14.4107 25.0422 15.0703L25.0431 15.7449V16.9296C25.0453 17.5895 25.0384 18.2494 25.0223 18.9091L25.0168 19.0845C25.0096 19.2871 25.0006 19.487 24.9897 19.7284C24.9445 20.6906 24.7908 21.3471 24.5683 21.9232C24.3419 22.5271 23.986 23.074 23.5256 23.5256C23.0735 23.9853 22.5267 24.3411 21.9232 24.5683C21.3472 24.7917 20.6907 24.9436 19.7285 24.9888C19.487 24.9997 19.2872 25.0087 19.0846 25.016L18.9092 25.0214C18.2495 25.0375 17.5896 25.0444 16.9297 25.0422L16.2551 25.0431H15.0713C14.4114 25.0453 13.7515 25.0384 13.0918 25.0223L12.9164 25.0169C12.7017 25.0091 12.4871 25 12.2725 24.9897C11.3103 24.9445 10.6538 24.7908 10.0769 24.5683C9.47342 24.3417 8.92682 23.9858 8.47536 23.5256C8.01511 23.0737 7.65897 22.5269 7.43179 21.9232C7.20843 21.3471 7.05651 20.6906 7.01129 19.7284C7.00122 19.5138 6.99218 19.2992 6.98416 19.0845L6.97964 18.9091C6.96297 18.2494 6.95543 17.5895 6.95703 16.9296V15.0703C6.95451 14.4107 6.96114 13.7511 6.97693 13.0916L6.98326 12.9162C6.99049 12.7136 6.99954 12.5129 7.01039 12.2723C7.0556 11.3092 7.20753 10.6536 7.43089 10.0766C7.6582 9.47312 8.01503 8.92676 8.47626 8.476C8.92741 8.01548 9.47367 7.65902 10.0769 7.43152C10.6538 7.20815 11.3094 7.05623 12.2725 7.01101L12.9164 6.98388L13.0918 6.97936C13.7512 6.9627 14.4108 6.95516 15.0704 6.95675L16.9297 6.95766ZM16 11.4792C15.401 11.4708 14.8062 11.5815 14.2502 11.8049C13.6943 12.0283 13.1883 12.3599 12.7616 12.7806C12.335 13.2013 11.9962 13.7025 11.7649 14.2553C11.5337 14.808 11.4146 15.4012 11.4146 16.0004C11.4146 16.5995 11.5337 17.1927 11.7649 17.7455C11.9962 18.2982 12.335 18.7995 12.7616 19.2201C13.1883 19.6408 13.6943 19.9725 14.2502 20.1959C14.8062 20.4193 15.401 20.53 16 20.5215C17.1992 20.5215 18.3493 20.0451 19.1972 19.1972C20.0452 18.3492 20.5216 17.1991 20.5216 15.9999C20.5216 14.8007 20.0452 13.6506 19.1972 12.8027C18.3493 11.9547 17.1992 11.4792 16 11.4792ZM16 13.2879C16.3604 13.2812 16.7185 13.3465 17.0534 13.4798C17.3883 13.6131 17.6932 13.8118 17.9504 14.0643C18.2076 14.3168 18.412 14.618 18.5515 14.9503C18.691 15.2827 18.7629 15.6395 18.7629 15.9999C18.763 16.3604 18.6912 16.7172 18.5518 17.0496C18.4124 17.382 18.2082 17.6833 17.9511 17.9358C17.6939 18.1884 17.389 18.3872 17.0542 18.5206C16.7194 18.654 16.3613 18.7194 16.001 18.7129C15.2814 18.7129 14.5914 18.427 14.0826 17.9183C13.5739 17.4095 13.288 16.7194 13.288 15.9999C13.288 15.2804 13.5739 14.5904 14.0826 14.0816C14.5914 13.5728 15.2814 13.287 16.001 13.287L16 13.2879ZM20.7476 10.1228C20.4559 10.1344 20.18 10.2585 19.9777 10.4691C19.7754 10.6796 19.6625 10.9603 19.6625 11.2523C19.6625 11.5442 19.7754 11.8249 19.9777 12.0354C20.18 12.246 20.4559 12.3701 20.7476 12.3817C21.0474 12.3817 21.3349 12.2627 21.5469 12.0507C21.7589 11.8387 21.878 11.5512 21.878 11.2514C21.878 10.9516 21.7589 10.664 21.5469 10.452C21.3349 10.2401 21.0474 10.121 20.7476 10.121V10.1228Z" fill="white"/>
</svg>
