<svg width="30" height="30" viewBox="0 0 30 30" fill="none" xmlns="http://www.w3.org/2000/svg">
<circle cx="15" cy="15" r="15" fill="#FF0000"/>
<path d="M13.8261 17.795L18.5648 15L13.8261 12.205V17.795ZM24.3809 10.5C24.4996 10.9379 24.5817 11.5249 24.6365 12.2702C24.7004 13.0155 24.7278 13.6584 24.7278 14.2174L24.7826 15C24.7826 17.0404 24.6365 18.5404 24.3809 19.5C24.1526 20.3385 23.623 20.8789 22.8013 21.1118C22.3722 21.2329 21.5869 21.3168 20.3817 21.3727C19.1948 21.4379 18.1083 21.4658 17.1039 21.4658L15.6522 21.5217C11.8265 21.5217 9.44347 21.3727 8.50303 21.1118C7.68129 20.8789 7.15173 20.3385 6.92347 19.5C6.80477 19.0621 6.7226 18.4752 6.66782 17.7298C6.6039 16.9845 6.57651 16.3416 6.57651 15.7826L6.52173 15C6.52173 12.9596 6.66782 11.4596 6.92347 10.5C7.15173 9.6615 7.68129 9.12113 8.50303 8.88821C8.93216 8.76709 9.71738 8.68324 10.9226 8.62734C12.1096 8.56212 13.1961 8.53417 14.2004 8.53417L15.6522 8.47827C19.4778 8.47827 21.8609 8.62734 22.8013 8.88821C23.623 9.12113 24.1526 9.6615 24.3809 10.5Z" fill="white"/>
</svg>
